<?xml version="1.0" standalone="no"?>
<!DOCTYPE svg PUBLIC "-//W3C//DTD SVG 20010904//EN"
 "http://www.w3.org/TR/2001/REC-SVG-20010904/DTD/svg10.dtd">
<svg version="1.0" xmlns="http://www.w3.org/2000/svg"
 width="256.000000pt" height="256.000000pt" viewBox="0 0 256.000000 256.000000"
 preserveAspectRatio="xMidYMid meet">
<metadata>
Created by potrace 1.14, written by Peter Selinger 2001-2017
</metadata>
<g transform="translate(0.000000,256.000000) scale(0.100000,-0.100000)"
fill="#000000" stroke="none">
<path d="M1529 2427 c-19 -39 -47 -86 -62 -104 -25 -29 -31 -31 -55 -21 -43
16 -182 19 -239 4 -50 -14 -52 -13 -76 13 -14 14 -41 59 -61 99 -20 39 -40 72
-46 72 -5 0 -21 -5 -35 -12 -19 -9 -24 -16 -19 -32 12 -40 66 -141 87 -164
l21 -22 -30 -33 c-17 -17 -36 -45 -44 -60 -8 -16 -32 -36 -54 -46 -90 -41
-168 -153 -181 -263 -10 -82 -29 -84 -161 -17 -76 39 -105 58 -113 78 -12 31
-111 301 -116 317 -2 8 -17 8 -52 -1 -42 -11 -48 -15 -45 -36 7 -51 74 -374
83 -395 6 -16 43 -41 121 -80 62 -31 115 -58 117 -60 2 -2 -8 -32 -23 -66 -14
-35 -32 -92 -40 -127 -8 -34 -16 -64 -18 -66 -3 -3 -129 -37 -181 -49 -17 -4
-74 -54 -152 -132 -69 -69 -125 -129 -125 -133 0 -9 64 -71 74 -71 4 0 64 42
134 94 94 69 140 97 179 107 29 7 54 11 57 8 2 -2 6 -73 9 -158 l6 -155 -79
-78 -78 -78 -81 -203 c-45 -112 -81 -207 -81 -210 0 -3 23 -13 51 -22 62 -21
50 -34 160 180 71 139 128 225 149 225 4 0 17 -26 30 -57 91 -227 301 -403
582 -489 114 -35 179 -34 298 6 209 70 382 190 486 338 24 34 71 128 83 165 7
20 16 37 21 37 21 0 78 -87 159 -242 47 -92 90 -170 94 -174 5 -6 92 20 106
32 2 2 -34 96 -79 209 l-82 205 -78 78 -78 78 6 155 c3 97 9 157 16 161 6 4
13 3 14 -2 2 -6 15 -10 28 -10 14 0 39 -7 55 -16 26 -13 197 -135 250 -179 15
-11 22 -8 53 24 20 20 36 40 36 44 0 5 -56 64 -124 132 -100 99 -133 126 -165
134 -23 6 -60 16 -83 22 -24 6 -51 13 -62 15 -24 4 -29 10 -33 37 -8 50 -34
139 -54 182 -12 25 -20 47 -18 49 2 2 55 29 117 60 74 37 116 64 122 79 8 20
74 337 82 396 3 21 -3 25 -44 36 l-47 12 -20 -51 c-11 -28 -38 -100 -60 -161
-22 -60 -42 -117 -46 -126 -3 -8 -52 -39 -109 -68 -79 -40 -110 -50 -130 -45
-14 3 -26 14 -27 23 -5 130 -86 259 -189 306 -22 10 -42 27 -46 38 -3 10 -21
36 -40 57 -34 37 -34 37 -15 61 20 26 91 163 91 177 0 5 -15 15 -33 24 l-34
16 -34 -71z"/>
</g>
</svg>
